<mxfile host="app.diagrams.net" modified="2023-09-18T21:33:34.735Z" agent="Mozilla/5.0 (Macintosh; Intel Mac OS X 10_15_7) AppleWebKit/537.36 (KHTML, like Gecko) Chrome/116.0.0.0 Safari/537.36" etag="gpe5f3RTnL3vnEEzrJ-K" version="21.7.5" type="device">
  <diagram name="Page-1" id="Az8x2k57voQ6nQuQkXxz">
    <mxGraphModel dx="1414" dy="832" grid="1" gridSize="10" guides="1" tooltips="1" connect="1" arrows="1" fold="1" page="1" pageScale="1" pageWidth="850" pageHeight="1100" math="0" shadow="0">
      <root>
        <mxCell id="0" />
        <mxCell id="1" parent="0" />
        <mxCell id="Y36BE1ZCJrBh50Uf27bB-40" style="edgeStyle=orthogonalEdgeStyle;rounded=0;orthogonalLoop=1;jettySize=auto;html=1;exitX=1;exitY=0.5;exitDx=0;exitDy=0;entryX=0;entryY=0.5;entryDx=0;entryDy=0;" parent="1" source="lcejkJ3VUB7gTLv_sKPh-1" target="lcejkJ3VUB7gTLv_sKPh-2" edge="1">
          <mxGeometry relative="1" as="geometry" />
        </mxCell>
        <mxCell id="lcejkJ3VUB7gTLv_sKPh-1" value="personalized recommendation strip" style="rounded=0;whiteSpace=wrap;html=1;" parent="1" vertex="1">
          <mxGeometry x="154" y="288" width="100" height="50" as="geometry" />
        </mxCell>
        <mxCell id="Y36BE1ZCJrBh50Uf27bB-41" style="edgeStyle=orthogonalEdgeStyle;rounded=0;orthogonalLoop=1;jettySize=auto;html=1;exitX=1;exitY=0.5;exitDx=0;exitDy=0;entryX=0;entryY=0.5;entryDx=0;entryDy=0;" parent="1" source="lcejkJ3VUB7gTLv_sKPh-2" target="lcejkJ3VUB7gTLv_sKPh-3" edge="1">
          <mxGeometry relative="1" as="geometry" />
        </mxCell>
        <mxCell id="lcejkJ3VUB7gTLv_sKPh-2" value="personalized thumbnail" style="rounded=0;whiteSpace=wrap;html=1;" parent="1" vertex="1">
          <mxGeometry x="280" y="288" width="100" height="50" as="geometry" />
        </mxCell>
        <mxCell id="Y36BE1ZCJrBh50Uf27bB-42" style="edgeStyle=orthogonalEdgeStyle;rounded=0;orthogonalLoop=1;jettySize=auto;html=1;exitX=1;exitY=0.5;exitDx=0;exitDy=0;entryX=0;entryY=0.5;entryDx=0;entryDy=0;" parent="1" source="lcejkJ3VUB7gTLv_sKPh-3" target="lcejkJ3VUB7gTLv_sKPh-4" edge="1">
          <mxGeometry relative="1" as="geometry" />
        </mxCell>
        <mxCell id="lcejkJ3VUB7gTLv_sKPh-3" value="intent-satisfaction" style="rounded=0;whiteSpace=wrap;html=1;" parent="1" vertex="1">
          <mxGeometry x="400" y="288" width="100" height="50" as="geometry" />
        </mxCell>
        <mxCell id="lcejkJ3VUB7gTLv_sKPh-4" value="recommendation diversity" style="rounded=0;whiteSpace=wrap;html=1;" parent="1" vertex="1">
          <mxGeometry x="520" y="288" width="100" height="50" as="geometry" />
        </mxCell>
        <mxCell id="lcejkJ3VUB7gTLv_sKPh-6" value="intent" style="ellipse;shape=cloud;whiteSpace=wrap;html=1;" parent="1" vertex="1">
          <mxGeometry x="120" y="50" width="120" height="80" as="geometry" />
        </mxCell>
        <mxCell id="lcejkJ3VUB7gTLv_sKPh-7" value="user" style="shape=umlActor;verticalLabelPosition=bottom;verticalAlign=top;html=1;outlineConnect=0;" parent="1" vertex="1">
          <mxGeometry x="165" y="130" width="30" height="60" as="geometry" />
        </mxCell>
        <mxCell id="Y36BE1ZCJrBh50Uf27bB-1" value="" style="group" parent="1" vertex="1" connectable="0">
          <mxGeometry x="260" y="90" width="280" height="150" as="geometry" />
        </mxCell>
        <mxCell id="lcejkJ3VUB7gTLv_sKPh-9" value="" style="shape=process;whiteSpace=wrap;html=1;backgroundOutline=1;" parent="Y36BE1ZCJrBh50Uf27bB-1" vertex="1">
          <mxGeometry width="280" height="150" as="geometry" />
        </mxCell>
        <mxCell id="lcejkJ3VUB7gTLv_sKPh-11" value="" style="endArrow=none;html=1;rounded=0;" parent="Y36BE1ZCJrBh50Uf27bB-1" edge="1">
          <mxGeometry width="50" height="50" relative="1" as="geometry">
            <mxPoint x="44.333333333333336" y="27.5" as="sourcePoint" />
            <mxPoint x="231.00000000000003" y="27.5" as="targetPoint" />
          </mxGeometry>
        </mxCell>
        <mxCell id="lcejkJ3VUB7gTLv_sKPh-12" value="" style="endArrow=none;html=1;rounded=0;" parent="Y36BE1ZCJrBh50Uf27bB-1" edge="1">
          <mxGeometry width="50" height="50" relative="1" as="geometry">
            <mxPoint x="46.66666666666667" y="71.5" as="sourcePoint" />
            <mxPoint x="233.33333333333334" y="71.5" as="targetPoint" />
          </mxGeometry>
        </mxCell>
        <mxCell id="lcejkJ3VUB7gTLv_sKPh-14" value="" style="rounded=0;whiteSpace=wrap;html=1;" parent="Y36BE1ZCJrBh50Uf27bB-1" vertex="1">
          <mxGeometry x="56" y="35" width="46.66666666666667" height="25" as="geometry" />
        </mxCell>
        <mxCell id="lcejkJ3VUB7gTLv_sKPh-15" value="" style="rounded=0;whiteSpace=wrap;html=1;" parent="Y36BE1ZCJrBh50Uf27bB-1" vertex="1">
          <mxGeometry x="114.33333333333334" y="35" width="46.66666666666667" height="25" as="geometry" />
        </mxCell>
        <mxCell id="lcejkJ3VUB7gTLv_sKPh-16" value="" style="rounded=0;whiteSpace=wrap;html=1;" parent="Y36BE1ZCJrBh50Uf27bB-1" vertex="1">
          <mxGeometry x="175" y="35" width="46.66666666666667" height="25" as="geometry" />
        </mxCell>
        <mxCell id="lcejkJ3VUB7gTLv_sKPh-17" value="" style="endArrow=none;html=1;rounded=0;" parent="Y36BE1ZCJrBh50Uf27bB-1" edge="1">
          <mxGeometry width="50" height="50" relative="1" as="geometry">
            <mxPoint x="45.5" y="90" as="sourcePoint" />
            <mxPoint x="232.16666666666669" y="90" as="targetPoint" />
          </mxGeometry>
        </mxCell>
        <mxCell id="lcejkJ3VUB7gTLv_sKPh-18" value="" style="endArrow=none;html=1;rounded=0;" parent="Y36BE1ZCJrBh50Uf27bB-1" edge="1">
          <mxGeometry width="50" height="50" relative="1" as="geometry">
            <mxPoint x="47.833333333333336" y="130" as="sourcePoint" />
            <mxPoint x="234.50000000000003" y="130" as="targetPoint" />
          </mxGeometry>
        </mxCell>
        <mxCell id="lcejkJ3VUB7gTLv_sKPh-19" value="" style="rounded=0;whiteSpace=wrap;html=1;fillColor=#FFB570;" parent="Y36BE1ZCJrBh50Uf27bB-1" vertex="1">
          <mxGeometry x="57.16666666666667" y="97.5" width="46.66666666666667" height="25" as="geometry" />
        </mxCell>
        <mxCell id="lcejkJ3VUB7gTLv_sKPh-20" value="" style="rounded=0;whiteSpace=wrap;html=1;fillColor=#EA6B66;" parent="Y36BE1ZCJrBh50Uf27bB-1" vertex="1">
          <mxGeometry x="115.50000000000001" y="97.5" width="46.66666666666667" height="25" as="geometry" />
        </mxCell>
        <mxCell id="lcejkJ3VUB7gTLv_sKPh-21" value="" style="rounded=0;whiteSpace=wrap;html=1;fillColor=#7EA6E0;" parent="Y36BE1ZCJrBh50Uf27bB-1" vertex="1">
          <mxGeometry x="176.16666666666669" y="97.5" width="46.66666666666667" height="25" as="geometry" />
        </mxCell>
        <mxCell id="Y36BE1ZCJrBh50Uf27bB-6" value="" style="triangle;whiteSpace=wrap;html=1;" parent="Y36BE1ZCJrBh50Uf27bB-1" vertex="1">
          <mxGeometry x="134.14000000000001" y="41.25" width="9.38" height="12.5" as="geometry" />
        </mxCell>
        <mxCell id="Y36BE1ZCJrBh50Uf27bB-18" value="3" style="ellipse;whiteSpace=wrap;html=1;aspect=fixed;" parent="Y36BE1ZCJrBh50Uf27bB-1" vertex="1">
          <mxGeometry x="140.14" y="23" width="20" height="20" as="geometry" />
        </mxCell>
        <mxCell id="Y36BE1ZCJrBh50Uf27bB-24" value="" style="group" parent="Y36BE1ZCJrBh50Uf27bB-1" vertex="1" connectable="0">
          <mxGeometry x="175.7" y="63" width="45.25999999999999" height="5" as="geometry" />
        </mxCell>
        <mxCell id="Y36BE1ZCJrBh50Uf27bB-2" value="" style="verticalLabelPosition=bottom;verticalAlign=top;html=1;shape=mxgraph.basic.star" parent="Y36BE1ZCJrBh50Uf27bB-24" vertex="1">
          <mxGeometry width="5.26" height="5" as="geometry" />
        </mxCell>
        <mxCell id="Y36BE1ZCJrBh50Uf27bB-20" value="" style="verticalLabelPosition=bottom;verticalAlign=top;html=1;shape=mxgraph.basic.star" parent="Y36BE1ZCJrBh50Uf27bB-24" vertex="1">
          <mxGeometry x="10" width="5.26" height="5" as="geometry" />
        </mxCell>
        <mxCell id="Y36BE1ZCJrBh50Uf27bB-21" value="" style="verticalLabelPosition=bottom;verticalAlign=top;html=1;shape=mxgraph.basic.star" parent="Y36BE1ZCJrBh50Uf27bB-24" vertex="1">
          <mxGeometry x="20" width="5.26" height="5" as="geometry" />
        </mxCell>
        <mxCell id="Y36BE1ZCJrBh50Uf27bB-22" value="" style="verticalLabelPosition=bottom;verticalAlign=top;html=1;shape=mxgraph.basic.star" parent="Y36BE1ZCJrBh50Uf27bB-24" vertex="1">
          <mxGeometry x="30" width="5.26" height="5" as="geometry" />
        </mxCell>
        <mxCell id="Y36BE1ZCJrBh50Uf27bB-23" value="" style="verticalLabelPosition=bottom;verticalAlign=top;html=1;shape=mxgraph.basic.star" parent="Y36BE1ZCJrBh50Uf27bB-24" vertex="1">
          <mxGeometry x="40" width="5.26" height="5" as="geometry" />
        </mxCell>
        <mxCell id="Y36BE1ZCJrBh50Uf27bB-27" value="3" style="ellipse;whiteSpace=wrap;html=1;aspect=fixed;" parent="Y36BE1ZCJrBh50Uf27bB-1" vertex="1">
          <mxGeometry x="220" y="43" width="20" height="20" as="geometry" />
        </mxCell>
        <mxCell id="Y36BE1ZCJrBh50Uf27bB-43" value="3" style="ellipse;whiteSpace=wrap;html=1;aspect=fixed;" parent="Y36BE1ZCJrBh50Uf27bB-1" vertex="1">
          <mxGeometry x="233" y="92.5" width="20" height="20" as="geometry" />
        </mxCell>
        <mxCell id="bhE_s_iJN0n-Otw8FCLm-1" value="" style="html=1;dashed=0;aspect=fixed;verticalLabelPosition=bottom;verticalAlign=top;align=center;shape=mxgraph.gmdl.bookmark;strokeColor=none;fillColor=#737373;shadow=0;sketch=0;" parent="Y36BE1ZCJrBh50Uf27bB-1" vertex="1">
          <mxGeometry x="99" y="56" width="6.87" height="11.45" as="geometry" />
        </mxCell>
        <mxCell id="bhE_s_iJN0n-Otw8FCLm-2" value="3" style="ellipse;whiteSpace=wrap;html=1;aspect=fixed;" parent="Y36BE1ZCJrBh50Uf27bB-1" vertex="1">
          <mxGeometry x="103.82999999999998" y="63" width="20" height="20" as="geometry" />
        </mxCell>
        <mxCell id="bhE_s_iJN0n-Otw8FCLm-4" value="" style="endArrow=classic;html=1;rounded=0;" parent="Y36BE1ZCJrBh50Uf27bB-1" edge="1">
          <mxGeometry width="50" height="50" relative="1" as="geometry">
            <mxPoint x="233" y="115" as="sourcePoint" />
            <mxPoint x="227" y="105" as="targetPoint" />
            <Array as="points">
              <mxPoint x="233" y="115" />
            </Array>
          </mxGeometry>
        </mxCell>
        <mxCell id="Y36BE1ZCJrBh50Uf27bB-9" value="" style="strokeWidth=2;html=1;shape=mxgraph.flowchart.annotation_2;align=left;labelPosition=right;pointerEvents=1;" parent="1" vertex="1">
          <mxGeometry x="82" y="40" width="50" height="220" as="geometry" />
        </mxCell>
        <mxCell id="Y36BE1ZCJrBh50Uf27bB-10" value="user journey" style="text;html=1;strokeColor=none;fillColor=none;align=center;verticalAlign=middle;whiteSpace=wrap;rounded=0;rotation=-90;" parent="1" vertex="1">
          <mxGeometry x="2" y="135" width="120" height="30" as="geometry" />
        </mxCell>
        <mxCell id="Y36BE1ZCJrBh50Uf27bB-11" value="" style="strokeWidth=2;html=1;shape=mxgraph.flowchart.annotation_2;align=left;labelPosition=right;pointerEvents=1;" parent="1" vertex="1">
          <mxGeometry x="82" y="280" width="50" height="70" as="geometry" />
        </mxCell>
        <mxCell id="Y36BE1ZCJrBh50Uf27bB-12" value="personalization pipeline" style="text;html=1;strokeColor=none;fillColor=none;align=center;verticalAlign=middle;whiteSpace=wrap;rounded=0;rotation=-90;" parent="1" vertex="1">
          <mxGeometry x="-33" y="300" width="190" height="30" as="geometry" />
        </mxCell>
        <mxCell id="Y36BE1ZCJrBh50Uf27bB-14" value="1" style="ellipse;whiteSpace=wrap;html=1;aspect=fixed;" parent="1" vertex="1">
          <mxGeometry x="200" y="41" width="20" height="20" as="geometry" />
        </mxCell>
        <mxCell id="Y36BE1ZCJrBh50Uf27bB-16" value="2" style="ellipse;whiteSpace=wrap;html=1;aspect=fixed;" parent="1" vertex="1">
          <mxGeometry x="234" y="112" width="20" height="20" as="geometry" />
        </mxCell>
        <mxCell id="Y36BE1ZCJrBh50Uf27bB-17" value="sees" style="endArrow=classic;html=1;rounded=0;exitX=0.75;exitY=0.1;exitDx=0;exitDy=0;exitPerimeter=0;" parent="1" source="lcejkJ3VUB7gTLv_sKPh-7" edge="1">
          <mxGeometry width="50" height="50" relative="1" as="geometry">
            <mxPoint x="185" y="140" as="sourcePoint" />
            <mxPoint x="260" y="140" as="targetPoint" />
          </mxGeometry>
        </mxCell>
        <mxCell id="Y36BE1ZCJrBh50Uf27bB-29" value="" style="endArrow=classic;html=1;rounded=0;exitX=0.75;exitY=0.1;exitDx=0;exitDy=0;exitPerimeter=0;" parent="1" edge="1">
          <mxGeometry width="50" height="50" relative="1" as="geometry">
            <mxPoint x="540" y="160" as="sourcePoint" />
            <mxPoint x="580" y="120" as="targetPoint" />
          </mxGeometry>
        </mxCell>
        <mxCell id="Y36BE1ZCJrBh50Uf27bB-32" value="4" style="ellipse;whiteSpace=wrap;html=1;aspect=fixed;" parent="1" vertex="1">
          <mxGeometry x="620" y="40" width="20" height="20" as="geometry" />
        </mxCell>
        <mxCell id="Y36BE1ZCJrBh50Uf27bB-33" value="" style="endArrow=none;dashed=1;html=1;rounded=0;exitX=0.5;exitY=0;exitDx=0;exitDy=0;" parent="1" source="lcejkJ3VUB7gTLv_sKPh-1" edge="1">
          <mxGeometry width="50" height="50" relative="1" as="geometry">
            <mxPoint x="410" y="230" as="sourcePoint" />
            <mxPoint x="400" y="220" as="targetPoint" />
          </mxGeometry>
        </mxCell>
        <mxCell id="Y36BE1ZCJrBh50Uf27bB-34" value="" style="endArrow=none;dashed=1;html=1;rounded=0;entryX=0.5;entryY=1;entryDx=0;entryDy=0;exitX=0.5;exitY=0;exitDx=0;exitDy=0;" parent="1" source="lcejkJ3VUB7gTLv_sKPh-2" target="lcejkJ3VUB7gTLv_sKPh-19" edge="1">
          <mxGeometry width="50" height="50" relative="1" as="geometry">
            <mxPoint x="410" y="230" as="sourcePoint" />
            <mxPoint x="460" y="180" as="targetPoint" />
          </mxGeometry>
        </mxCell>
        <mxCell id="Y36BE1ZCJrBh50Uf27bB-35" value="" style="endArrow=none;dashed=1;html=1;rounded=0;exitX=0.5;exitY=0;exitDx=0;exitDy=0;" parent="1" source="lcejkJ3VUB7gTLv_sKPh-4" edge="1">
          <mxGeometry width="50" height="50" relative="1" as="geometry">
            <mxPoint x="410" y="230" as="sourcePoint" />
            <mxPoint x="400" y="220" as="targetPoint" />
          </mxGeometry>
        </mxCell>
        <mxCell id="Y36BE1ZCJrBh50Uf27bB-36" value="" style="endArrow=none;dashed=1;html=1;rounded=0;entryX=0.31;entryY=0.8;entryDx=0;entryDy=0;entryPerimeter=0;exitX=0.5;exitY=0;exitDx=0;exitDy=0;" parent="1" source="lcejkJ3VUB7gTLv_sKPh-3" target="lcejkJ3VUB7gTLv_sKPh-6" edge="1">
          <mxGeometry width="50" height="50" relative="1" as="geometry">
            <mxPoint x="490" y="340" as="sourcePoint" />
            <mxPoint x="540" y="290" as="targetPoint" />
          </mxGeometry>
        </mxCell>
        <mxCell id="Y36BE1ZCJrBh50Uf27bB-39" value="" style="endArrow=none;dashed=1;html=1;rounded=0;exitX=0.5;exitY=0;exitDx=0;exitDy=0;entryX=0.31;entryY=0.8;entryDx=0;entryDy=0;entryPerimeter=0;" parent="1" source="lcejkJ3VUB7gTLv_sKPh-3" target="x5KKbig_Py4zfeKvUgtX-1" edge="1">
          <mxGeometry width="50" height="50" relative="1" as="geometry">
            <mxPoint x="190" y="350" as="sourcePoint" />
            <mxPoint x="590" y="170" as="targetPoint" />
          </mxGeometry>
        </mxCell>
        <mxCell id="x5KKbig_Py4zfeKvUgtX-1" value="satisfaction" style="ellipse;shape=cloud;whiteSpace=wrap;html=1;" parent="1" vertex="1">
          <mxGeometry x="570" y="60" width="120" height="80" as="geometry" />
        </mxCell>
        <mxCell id="g4wPJDuO1S_QUPeGAYAe-1" style="edgeStyle=orthogonalEdgeStyle;rounded=0;orthogonalLoop=1;jettySize=auto;html=1;exitX=1;exitY=0.5;exitDx=0;exitDy=0;entryX=0;entryY=0.5;entryDx=0;entryDy=0;" edge="1" parent="1" source="g4wPJDuO1S_QUPeGAYAe-2" target="g4wPJDuO1S_QUPeGAYAe-4">
          <mxGeometry relative="1" as="geometry" />
        </mxCell>
        <mxCell id="g4wPJDuO1S_QUPeGAYAe-2" value="&lt;font color=&quot;#ffffff&quot;&gt;personalized recommendation strip&lt;/font&gt;" style="rounded=0;whiteSpace=wrap;html=1;fillColor=#336600;shadow=0;" vertex="1" parent="1">
          <mxGeometry x="154" y="450" width="100" height="50" as="geometry" />
        </mxCell>
        <mxCell id="g4wPJDuO1S_QUPeGAYAe-3" style="edgeStyle=orthogonalEdgeStyle;rounded=0;orthogonalLoop=1;jettySize=auto;html=1;exitX=1;exitY=0.5;exitDx=0;exitDy=0;entryX=0;entryY=0.5;entryDx=0;entryDy=0;" edge="1" parent="1" source="g4wPJDuO1S_QUPeGAYAe-4" target="g4wPJDuO1S_QUPeGAYAe-6">
          <mxGeometry relative="1" as="geometry" />
        </mxCell>
        <mxCell id="g4wPJDuO1S_QUPeGAYAe-4" value="personalized thumbnail" style="rounded=0;whiteSpace=wrap;html=1;" vertex="1" parent="1">
          <mxGeometry x="280" y="450" width="100" height="50" as="geometry" />
        </mxCell>
        <mxCell id="g4wPJDuO1S_QUPeGAYAe-5" style="edgeStyle=orthogonalEdgeStyle;rounded=0;orthogonalLoop=1;jettySize=auto;html=1;exitX=1;exitY=0.5;exitDx=0;exitDy=0;entryX=0;entryY=0.5;entryDx=0;entryDy=0;" edge="1" parent="1" source="g4wPJDuO1S_QUPeGAYAe-6" target="g4wPJDuO1S_QUPeGAYAe-7">
          <mxGeometry relative="1" as="geometry" />
        </mxCell>
        <mxCell id="g4wPJDuO1S_QUPeGAYAe-6" value="intent-satisfaction" style="rounded=0;whiteSpace=wrap;html=1;" vertex="1" parent="1">
          <mxGeometry x="400" y="450" width="100" height="50" as="geometry" />
        </mxCell>
        <mxCell id="g4wPJDuO1S_QUPeGAYAe-7" value="recommendation diversity" style="rounded=0;whiteSpace=wrap;html=1;" vertex="1" parent="1">
          <mxGeometry x="520" y="450" width="100" height="50" as="geometry" />
        </mxCell>
        <mxCell id="g4wPJDuO1S_QUPeGAYAe-15" style="edgeStyle=orthogonalEdgeStyle;rounded=0;orthogonalLoop=1;jettySize=auto;html=1;exitX=1;exitY=0.5;exitDx=0;exitDy=0;entryX=0;entryY=0.5;entryDx=0;entryDy=0;" edge="1" parent="1" source="g4wPJDuO1S_QUPeGAYAe-16" target="g4wPJDuO1S_QUPeGAYAe-18">
          <mxGeometry relative="1" as="geometry" />
        </mxCell>
        <mxCell id="g4wPJDuO1S_QUPeGAYAe-16" value="personalized recommendation strip" style="rounded=0;whiteSpace=wrap;html=1;" vertex="1" parent="1">
          <mxGeometry x="154" y="520" width="100" height="50" as="geometry" />
        </mxCell>
        <mxCell id="g4wPJDuO1S_QUPeGAYAe-17" style="edgeStyle=orthogonalEdgeStyle;rounded=0;orthogonalLoop=1;jettySize=auto;html=1;exitX=1;exitY=0.5;exitDx=0;exitDy=0;entryX=0;entryY=0.5;entryDx=0;entryDy=0;" edge="1" parent="1" source="g4wPJDuO1S_QUPeGAYAe-18" target="g4wPJDuO1S_QUPeGAYAe-20">
          <mxGeometry relative="1" as="geometry" />
        </mxCell>
        <mxCell id="g4wPJDuO1S_QUPeGAYAe-18" value="&lt;font color=&quot;#ffffff&quot;&gt;personalized thumbnail&lt;/font&gt;" style="rounded=0;whiteSpace=wrap;html=1;fillColor=#336600;" vertex="1" parent="1">
          <mxGeometry x="280" y="520" width="100" height="50" as="geometry" />
        </mxCell>
        <mxCell id="g4wPJDuO1S_QUPeGAYAe-19" style="edgeStyle=orthogonalEdgeStyle;rounded=0;orthogonalLoop=1;jettySize=auto;html=1;exitX=1;exitY=0.5;exitDx=0;exitDy=0;entryX=0;entryY=0.5;entryDx=0;entryDy=0;" edge="1" parent="1" source="g4wPJDuO1S_QUPeGAYAe-20" target="g4wPJDuO1S_QUPeGAYAe-21">
          <mxGeometry relative="1" as="geometry" />
        </mxCell>
        <mxCell id="g4wPJDuO1S_QUPeGAYAe-20" value="intent-satisfaction" style="rounded=0;whiteSpace=wrap;html=1;" vertex="1" parent="1">
          <mxGeometry x="400" y="520" width="100" height="50" as="geometry" />
        </mxCell>
        <mxCell id="g4wPJDuO1S_QUPeGAYAe-21" value="recommendation diversity" style="rounded=0;whiteSpace=wrap;html=1;" vertex="1" parent="1">
          <mxGeometry x="520" y="520" width="100" height="50" as="geometry" />
        </mxCell>
        <mxCell id="g4wPJDuO1S_QUPeGAYAe-22" style="edgeStyle=orthogonalEdgeStyle;rounded=0;orthogonalLoop=1;jettySize=auto;html=1;exitX=1;exitY=0.5;exitDx=0;exitDy=0;entryX=0;entryY=0.5;entryDx=0;entryDy=0;" edge="1" parent="1" source="g4wPJDuO1S_QUPeGAYAe-23" target="g4wPJDuO1S_QUPeGAYAe-25">
          <mxGeometry relative="1" as="geometry" />
        </mxCell>
        <mxCell id="g4wPJDuO1S_QUPeGAYAe-23" value="personalized recommendation strip" style="rounded=0;whiteSpace=wrap;html=1;" vertex="1" parent="1">
          <mxGeometry x="154" y="590" width="100" height="50" as="geometry" />
        </mxCell>
        <mxCell id="g4wPJDuO1S_QUPeGAYAe-24" style="edgeStyle=orthogonalEdgeStyle;rounded=0;orthogonalLoop=1;jettySize=auto;html=1;exitX=1;exitY=0.5;exitDx=0;exitDy=0;entryX=0;entryY=0.5;entryDx=0;entryDy=0;" edge="1" parent="1" source="g4wPJDuO1S_QUPeGAYAe-25" target="g4wPJDuO1S_QUPeGAYAe-27">
          <mxGeometry relative="1" as="geometry" />
        </mxCell>
        <mxCell id="g4wPJDuO1S_QUPeGAYAe-25" value="personalized thumbnail" style="rounded=0;whiteSpace=wrap;html=1;" vertex="1" parent="1">
          <mxGeometry x="280" y="590" width="100" height="50" as="geometry" />
        </mxCell>
        <mxCell id="g4wPJDuO1S_QUPeGAYAe-26" style="edgeStyle=orthogonalEdgeStyle;rounded=0;orthogonalLoop=1;jettySize=auto;html=1;exitX=1;exitY=0.5;exitDx=0;exitDy=0;entryX=0;entryY=0.5;entryDx=0;entryDy=0;" edge="1" parent="1" source="g4wPJDuO1S_QUPeGAYAe-27" target="g4wPJDuO1S_QUPeGAYAe-28">
          <mxGeometry relative="1" as="geometry" />
        </mxCell>
        <mxCell id="g4wPJDuO1S_QUPeGAYAe-27" value="&lt;font color=&quot;#ffffff&quot;&gt;intent-satisfaction&lt;/font&gt;" style="rounded=0;whiteSpace=wrap;html=1;fillColor=#336600;" vertex="1" parent="1">
          <mxGeometry x="400" y="590" width="100" height="50" as="geometry" />
        </mxCell>
        <mxCell id="g4wPJDuO1S_QUPeGAYAe-28" value="recommendation diversity" style="rounded=0;whiteSpace=wrap;html=1;" vertex="1" parent="1">
          <mxGeometry x="520" y="590" width="100" height="50" as="geometry" />
        </mxCell>
        <mxCell id="g4wPJDuO1S_QUPeGAYAe-29" style="edgeStyle=orthogonalEdgeStyle;rounded=0;orthogonalLoop=1;jettySize=auto;html=1;exitX=1;exitY=0.5;exitDx=0;exitDy=0;entryX=0;entryY=0.5;entryDx=0;entryDy=0;" edge="1" parent="1" source="g4wPJDuO1S_QUPeGAYAe-30" target="g4wPJDuO1S_QUPeGAYAe-32">
          <mxGeometry relative="1" as="geometry" />
        </mxCell>
        <mxCell id="g4wPJDuO1S_QUPeGAYAe-30" value="personalized recommendation strip" style="rounded=0;whiteSpace=wrap;html=1;" vertex="1" parent="1">
          <mxGeometry x="154" y="660" width="100" height="50" as="geometry" />
        </mxCell>
        <mxCell id="g4wPJDuO1S_QUPeGAYAe-31" style="edgeStyle=orthogonalEdgeStyle;rounded=0;orthogonalLoop=1;jettySize=auto;html=1;exitX=1;exitY=0.5;exitDx=0;exitDy=0;entryX=0;entryY=0.5;entryDx=0;entryDy=0;" edge="1" parent="1" source="g4wPJDuO1S_QUPeGAYAe-32" target="g4wPJDuO1S_QUPeGAYAe-34">
          <mxGeometry relative="1" as="geometry" />
        </mxCell>
        <mxCell id="g4wPJDuO1S_QUPeGAYAe-32" value="personalized thumbnail" style="rounded=0;whiteSpace=wrap;html=1;" vertex="1" parent="1">
          <mxGeometry x="280" y="660" width="100" height="50" as="geometry" />
        </mxCell>
        <mxCell id="g4wPJDuO1S_QUPeGAYAe-33" style="edgeStyle=orthogonalEdgeStyle;rounded=0;orthogonalLoop=1;jettySize=auto;html=1;exitX=1;exitY=0.5;exitDx=0;exitDy=0;entryX=0;entryY=0.5;entryDx=0;entryDy=0;" edge="1" parent="1" source="g4wPJDuO1S_QUPeGAYAe-34" target="g4wPJDuO1S_QUPeGAYAe-35">
          <mxGeometry relative="1" as="geometry" />
        </mxCell>
        <mxCell id="g4wPJDuO1S_QUPeGAYAe-34" value="intent-satisfaction" style="rounded=0;whiteSpace=wrap;html=1;" vertex="1" parent="1">
          <mxGeometry x="400" y="660" width="100" height="50" as="geometry" />
        </mxCell>
        <mxCell id="g4wPJDuO1S_QUPeGAYAe-35" value="&lt;font color=&quot;#ffffff&quot;&gt;recommendation diversity&lt;/font&gt;" style="rounded=0;whiteSpace=wrap;html=1;fillColor=#336600;" vertex="1" parent="1">
          <mxGeometry x="520" y="660" width="100" height="50" as="geometry" />
        </mxCell>
      </root>
    </mxGraphModel>
  </diagram>
</mxfile>
